<svg width="149" height="64" viewBox="0 0 149 64" fill="none" xmlns="http://www.w3.org/2000/svg">
<g clip-path="url(#clip0_2_33)">
<path d="M0 0.227764H116.827V64H0V0.227764Z" fill="#2395FE"/>
<path d="M147.897 39.6199C143.73 56.7332 126.453 67.2346 109.308 63.0753C92.1635 58.9162 81.6429 41.6713 85.8099 24.558C89.9766 7.44479 107.253 -3.05656 124.398 1.10267C141.543 5.26189 152.064 22.5067 147.897 39.6199Z" fill="#2395FE"/>
<path d="M11.8969 31.2028V4.92411H15.8836V16.9372L25.2109 4.92411H30.1379L19.8326 17.9509V18.1761L30.3636 31.2028H25.3236L15.8836 19.415V31.2028H11.8969ZM34.1475 31.2028V27.7491H40.3906V8.86594C40.3906 8.04002 39.9895 7.62707 39.1872 7.62707H34.6739V4.1733H39.9019C41.3561 4.1733 42.4593 4.56122 43.2116 5.33708C43.9888 6.08788 44.3773 7.18909 44.3773 8.64068V27.7491H50.6584V31.2028H34.1475ZM65.6501 31.6534C63.8448 31.6534 62.2526 31.253 60.8737 30.4519C59.4946 29.6261 58.4164 28.4873 57.639 27.0358C56.8619 25.5843 56.4733 23.8948 56.4733 21.9678C56.4733 20.0156 56.8493 18.3012 57.6016 16.8246C58.3788 15.348 59.4569 14.1967 60.836 13.3709C62.24 12.545 63.8573 12.132 65.6878 12.132C67.4929 12.132 69.0475 12.545 70.3513 13.3709C71.6551 14.1717 72.6581 15.2479 73.3602 16.5994C74.0872 17.9509 74.4509 19.44 74.4509 21.0668C74.4509 21.317 74.4509 21.5923 74.4509 21.8927C74.4509 22.168 74.4384 22.4808 74.4133 22.8311H60.3847C60.51 24.558 61.0743 25.8719 62.0771 26.773C63.0802 27.6489 64.2585 28.0869 65.6125 28.0869C66.791 28.0869 67.7186 27.8491 68.3956 27.3736C69.0977 26.8732 69.6117 26.1974 69.9376 25.3465H73.962C73.5106 27.1235 72.5703 28.6251 71.1412 29.8513C69.7119 31.0528 67.8817 31.6534 65.6501 31.6534ZM65.6501 15.5858C64.4214 15.5858 63.3307 15.9612 62.3781 16.712C61.4252 17.4378 60.8109 18.4639 60.5351 19.7904H70.4642C70.3638 18.539 69.8751 17.5254 68.9975 16.7496C68.1199 15.9737 67.0041 15.5858 65.6501 15.5858ZM21.337 60.3509C19.958 60.3509 18.7921 60.0755 17.8393 59.525C16.9116 58.9492 16.197 58.161 15.6955 57.16H15.4698L15.1313 59.9004H11.7088V32.8707H15.6955V43.6826C16.1468 42.9317 16.8614 42.2685 17.8393 41.6929C18.8171 41.1174 19.9831 40.8295 21.337 40.8295C22.8917 40.8295 24.2831 41.2048 25.5119 41.9558C26.7404 42.6816 27.7058 43.7703 28.4077 45.2218C29.1349 46.6733 29.4983 48.4628 29.4983 50.5901C29.4983 52.7176 29.1349 54.507 28.4077 55.9585C27.7058 57.41 26.7404 58.5113 25.5119 59.2622C24.2831 59.988 22.8917 60.3509 21.337 60.3509ZM20.5096 56.5591C21.9388 56.5591 23.1174 56.0711 24.0449 55.0951C24.9978 54.0941 25.4742 52.6048 25.4742 50.6276C25.4742 48.6254 24.9978 47.1238 24.0449 46.1228C23.1174 45.1216 21.9388 44.6212 20.5096 44.6212C19.0804 44.6212 17.8894 45.1216 16.9366 46.1228C16.0089 47.0988 15.5451 48.5881 15.5451 50.5901C15.5451 52.5672 16.0089 54.0565 16.9366 55.0575C17.8894 56.0588 19.0804 56.5591 20.5096 56.5591ZM43.0986 60.3509C41.2933 60.3509 39.7013 59.9505 38.3222 59.1494C36.9431 58.3236 35.865 57.1848 35.0878 55.7333C34.3104 54.2818 33.9218 52.5923 33.9218 50.6652C33.9218 48.7131 34.2978 46.9988 35.0501 45.5222C35.8273 44.0454 36.9054 42.8943 38.2846 42.0683C39.6888 41.2424 41.3059 40.8295 43.1363 40.8295C44.9416 40.8295 46.4962 41.2424 47.8 42.0683C49.1038 42.8693 50.1067 43.9455 50.8088 45.297C51.536 46.6483 51.8995 48.1376 51.8995 49.7642C51.8995 50.0145 51.8995 50.2899 51.8995 50.5901C51.8995 50.8654 51.8869 51.1784 51.8618 51.5287H37.8332C37.9585 53.2555 38.5228 54.5695 39.5256 55.4705C40.5287 56.3464 41.707 56.7844 43.061 56.7844C44.2395 56.7844 45.1673 56.5466 45.8443 56.0711C46.5462 55.5707 47.0603 54.8949 47.3861 54.044H51.4105C50.9591 55.821 50.019 57.3226 48.5897 58.5488C47.1607 59.7503 45.3302 60.3509 43.0986 60.3509ZM43.0986 44.2832C41.8701 44.2832 40.7794 44.6588 39.8266 45.4095C38.8737 46.1353 38.2595 47.1614 37.9836 48.4879H47.9127C47.8126 47.2366 47.3236 46.2228 46.446 45.4471C45.5684 44.6713 44.4527 44.2832 43.0986 44.2832ZM57.0373 59.9004V56.4466H61.5881V45.9727C61.5881 45.1466 61.187 44.7337 60.3847 44.7337H57.4134V41.28H61.8891C62.917 41.28 63.7569 41.5804 64.4088 42.181C65.061 42.7566 65.3868 43.5701 65.3868 44.6212V45.0717H65.5748C65.8507 43.6701 66.4398 42.619 67.3425 41.9182C68.2703 41.1923 69.6118 40.8295 71.3669 40.8295H74.2629V45.0341H70.2009C68.7216 45.0341 67.5807 45.5473 66.7785 46.5733C65.976 47.5994 65.5748 48.8259 65.5748 50.2523V56.4466H71.3669V59.9004H57.0373Z" fill="white"/>
<path d="M119.775 17.793L127.879 33.4497L135.353 17.4842L148.444 17.2247L135.626 41.0739L149.751 64.7814L136.529 65.0434L128.19 49.0973L120.492 65.3613L107.238 65.6241L120.441 41.375L106.651 18.0532L119.775 17.793Z" fill="white"/>
<path d="M110.048 -4.59679L121.415 -2.92291L116.871 27.8172C116.33 31.4805 115.105 34.4707 113.196 36.7879C111.291 39.0835 108.861 40.6742 105.906 41.5601C102.952 42.4461 99.6071 42.6142 95.872 42.0642C92.1804 41.5205 89.0267 40.3956 86.4113 38.6893C83.8174 36.9863 81.9187 34.7579 80.7156 32.0046C79.537 29.233 79.2185 26.0154 79.76 22.352L84.3034 -8.3881L95.7025 -6.70943L91.1588 24.0307C90.8722 25.9701 90.9188 27.5954 91.2984 28.9064C91.6816 30.1957 92.3713 31.2001 93.3678 31.9194C94.3645 32.6384 95.6293 33.111 97.1622 33.3367C98.7165 33.5656 100.064 33.4779 101.205 33.0734C102.345 32.6689 103.275 31.903 103.993 30.7756C104.714 29.6268 105.218 28.0828 105.505 26.1432L110.048 -4.59679Z" fill="white"/>
</g>
<defs>
<clipPath id="clip0_2_33">
<rect width="149" height="64" fill="white"/>
</clipPath>
</defs>
</svg>
